<svg viewBox="0 0 500 500" xmlns="http://www.w3.org/2000/svg"><g xmlns="http://www.w3.org/2000/svg" id="svgg" transform="matrix(0.166704, 0, 0, 0.166704, 220.325851, 241.029892)" style="">
    <path id="path0" d="M171.233 6.546 C 156.019 13.195,78.142 58.086,71.918 63.794 C 56.045 78.353,66.951 104.271,95.774 120.482 C 104.879 125.604,112.313 131.104,112.293 132.705 C 112.263 135.229,103.726 164.385,99.945 174.881 C 98.920 177.727,96.672 177.335,89.726 173.097 C 49.615 148.627,43.647 147.299,26.319 158.994 C 10.304 169.802,10.362 169.338,11.451 278.351 C 12.128 346.195,13.156 367.287,15.951 370.650 C 19.094 374.433,18.188 375.739,9.101 380.534 C 3.342 383.573,-0.384 386.114,0.821 386.180 C 2.026 386.247,6.544 384.475,10.860 382.243 C 18.292 378.400,19.139 378.581,26.838 385.668 C 42.490 400.073,185.190 482.192,194.571 482.192 C 217.144 482.192,227.389 466.139,227.415 430.729 L 227.433 406.849 250.652 393.685 L 273.870 380.520 293.221 391.822 C 322.945 409.181,347.437 408.472,355.850 390.008 C 359.630 381.710,360.059 195.109,356.311 189.185 C 354.381 186.134,357.709 182.817,370.737 174.803 C 380.051 169.074,386.438 164.391,384.932 164.397 C 383.425 164.402,376.644 168.095,369.863 172.603 C 354.882 182.562,355.860 182.534,345.836 173.288 C 341.343 169.144,322.719 157.162,304.450 146.661 C 265.958 124.538,266.911 126.163,286.025 115.227 C 303.105 105.454,304.110 103.631,304.110 82.392 C 304.110 62.954,305.808 64.540,253.059 34.730 C 193.438 1.037,188.070 -0.812,171.233 6.546 M179.892 15.952 C 173.989 22.475,174.157 25.164,180.822 30.871 C 183.836 33.452,186.301 34.486,186.301 33.169 C 186.301 31.853,188.767 30.131,191.781 29.343 C 199.009 27.453,198.753 20.534,191.261 15.287 C 179.794 7.255,188.716 7.785,205.950 16.159 C 253.537 39.282,297.260 66.966,297.260 73.973 C 297.260 83.697,209.001 134.449,188.698 136.400 C 175.557 137.663,92.584 95.825,75.568 79.356 C 67.875 71.911,71.085 69.245,123.337 39.698 C 179.516 7.930,191.831 2.759,179.892 15.952 M190.411 21.918 C 191.342 23.425,189.493 24.658,186.301 24.658 C 183.110 24.658,181.260 23.425,182.192 21.918 C 183.123 20.411,184.972 19.178,186.301 19.178 C 187.630 19.178,189.480 20.411,190.411 21.918 M166.634 57.620 C 155.840 63.322,151.967 70.544,154.844 79.609 C 159.671 94.817,208.150 94.938,216.272 79.763 C 226.352 60.928,190.582 44.971,166.634 57.620 M183.562 61.426 C 183.562 63.567,179.877 66.127,175.374 67.116 C 170.871 68.105,166.483 70.053,165.623 71.444 C 163.556 74.789,158.904 74.688,158.904 71.298 C 158.904 68.807,176.933 57.925,181.507 57.655 C 182.637 57.589,183.562 59.286,183.562 61.426 M203.687 64.627 C 209.428 68.528,213.442 72.403,212.608 73.237 C 211.774 74.071,209.520 73.487,207.600 71.940 C 205.680 70.392,200.103 68.269,195.205 67.222 C 190.232 66.159,186.301 63.600,186.301 61.426 C 186.301 55.635,191.998 56.684,203.687 64.627 M90.440 67.088 C 88.580 69.329,87.774 73.028,88.649 75.308 C 90.806 80.929,109.194 80.929,111.351 75.308 C 113.541 69.601,107.459 63.014,100.000 63.014 C 96.602 63.014,92.300 64.847,90.440 67.088 M263.043 67.088 C 261.183 69.329,260.377 73.028,261.251 75.308 C 263.408 80.929,281.797 80.929,283.954 75.308 C 286.144 69.601,280.062 63.014,272.603 63.014 C 269.205 63.014,264.903 64.847,263.043 67.088 M105.479 71.233 C 106.444 72.793,104.084 73.973,100.000 73.973 C 95.916 73.973,93.556 72.793,94.521 71.233 C 95.452 69.726,97.918 68.493,100.000 68.493 C 102.082 68.493,104.548 69.726,105.479 71.233 M278.082 71.233 C 279.046 72.793,276.687 73.973,272.603 73.973 C 268.519 73.973,266.159 72.793,267.123 71.233 C 268.055 69.726,270.520 68.493,272.603 68.493 C 274.685 68.493,277.151 69.726,278.082 71.233 M183.562 80.822 C 183.562 83.379,180.974 84.932,176.712 84.932 C 170.061 84.932,167.965 82.264,171.689 78.539 C 175.136 75.092,183.562 76.713,183.562 80.822 M200.170 80.822 C 200.170 82.329,197.050 83.952,193.236 84.429 C 188.294 85.046,186.301 84.010,186.301 80.822 C 186.301 77.634,188.294 76.597,193.236 77.215 C 197.050 77.692,200.170 79.315,200.170 80.822 M187.671 141.816 C 202.644 140.963,208.262 138.525,250.685 114.464 C 282.772 96.266,297.527 89.223,298.118 91.826 C 299.142 96.331,293.920 106.849,290.660 106.849 C 288.015 106.849,235.312 136.207,215.268 148.846 C 190.970 164.168,179.170 162.143,131.507 134.470 C 80.425 104.813,76.600 102.111,78.542 97.050 C 79.514 94.516,78.737 93.234,76.526 93.724 C 74.547 94.162,72.479 92.481,71.930 89.988 C 71.271 86.996,87.986 95.197,121.082 114.103 L 171.233 142.751 187.671 141.816 M178.368 117.574 C 176.265 118.905,175.301 121.969,176.227 124.381 C 178.487 130.269,194.116 130.269,196.376 124.381 C 198.158 119.735,193.156 115.152,186.301 115.152 C 184.041 115.152,180.471 116.242,178.368 117.574 M269.704 133.449 C 270.862 136.469,269.527 139.630,265.941 142.353 C 262.884 144.675,259.660 150.890,258.778 156.164 C 255.444 176.089,254.513 178.087,246.672 182.142 C 235.317 188.014,235.615 188.475,235.628 165.068 L 235.639 143.836 248.641 136.380 C 263.931 127.613,267.285 127.146,269.704 133.449 M151.746 153.554 C 153.925 155.586,151.581 167.856,142.220 203.420 L 139.517 213.690 126.398 206.160 C 119.183 202.019,110.463 196.744,107.021 194.439 L 100.762 190.249 109.454 162.081 L 118.146 133.914 133.731 142.601 C 142.302 147.379,150.409 152.308,151.746 153.554 M304.574 153.842 C 323.060 164.510,328.626 169.027,327.368 172.335 C 326.082 175.716,326.447 175.974,328.974 173.466 C 335.909 166.585,353.425 185.770,353.425 200.247 C 353.425 203.546,351.267 207.925,348.630 209.979 C 344.064 213.534,344.064 213.633,348.630 212.042 C 353.129 210.476,353.425 215.615,353.425 295.461 C 353.425 373.497,353.027 380.805,348.630 383.632 C 344.333 386.395,344.319 386.566,348.491 385.278 C 357.228 382.580,350.773 390.599,340.436 395.285 C 333.527 398.416,329.793 398.921,328.540 396.892 C 327.247 394.800,326.183 394.792,324.903 396.863 C 322.617 400.563,315.645 397.912,295.433 385.659 L 279.907 376.247 296.002 368.261 C 305.864 363.367,312.141 358.496,312.213 355.682 C 312.362 349.772,265.221 374.145,233.562 396.346 L 227.397 400.668 227.382 338.005 C 227.364 265.788,226.079 258.783,210.374 245.341 C 204.126 239.992,200.843 235.616,203.079 235.616 C 213.761 235.616,234.685 221.729,239.183 211.654 C 241.709 205.998,242.248 203.705,240.381 206.559 C 226.614 227.604,202.233 238.863,188.278 230.620 C 182.644 227.292,180.938 224.552,182.011 220.558 C 182.823 217.539,183.504 203.822,183.524 190.076 L 183.562 165.084 194.868 163.276 C 201.086 162.282,211.565 158.308,218.155 154.446 L 230.137 147.425 230.137 169.603 C 230.137 189.776,230.621 191.781,235.488 191.781 C 250.665 191.781,263.014 178.370,263.014 161.888 C 263.014 157.352,264.922 152.051,267.255 150.108 C 269.587 148.165,272.977 145.081,274.789 143.255 C 279.240 138.767,277.196 138.041,304.574 153.842 M276.712 154.778 C 276.712 156.622,304.444 170.441,305.675 169.211 C 306.237 168.649,299.950 164.881,291.704 160.837 C 283.459 156.793,276.712 154.066,276.712 154.778 M72.238 170.176 C 89.422 180.044,94.470 184.300,94.300 188.775 C 93.961 197.689,134.321 220.328,146.911 218.285 C 151.945 217.468,156.673 217.785,157.418 218.990 C 158.163 220.196,169.165 227.015,181.868 234.144 C 194.570 241.273,208.469 250.764,212.755 255.236 L 220.548 263.366 221.366 359.366 C 222.131 449.035,221.860 455.631,217.257 459.393 C 214.546 461.608,213.856 462.648,215.722 461.705 C 217.909 460.599,218.564 461.426,217.565 464.029 C 216.712 466.251,214.261 468.743,212.117 469.565 C 208.793 470.841,208.219 457.147,208.219 376.517 C 208.219 251.185,218.553 268.777,107.837 205.636 C 51.089 173.273,34.363 162.544,36.687 160.001 C 41.610 154.615,48.653 156.630,72.238 170.176 M169.454 161.912 L 178.082 164.920 178.082 191.887 C 178.082 222.227,177.195 223.829,164.632 216.189 C 159.201 212.886,153.512 211.432,150.171 212.492 C 145.749 213.896,144.955 213.243,146.142 209.175 C 146.954 206.389,149.008 198.562,150.706 191.781 C 157.289 165.491,159.146 158.904,159.971 158.904 C 160.441 158.904,164.709 160.258,169.454 161.912 M274.201 162.684 C 276.996 165.231,304.110 178.032,304.110 176.805 C 304.110 175.260,277.945 161.644,274.977 161.644 C 273.922 161.644,273.573 162.112,274.201 162.684 M107.587 212.527 C 213.523 273.109,202.740 254.369,202.740 377.894 L 202.740 473.868 196.086 475.538 C 186.196 478.020,22.365 381.269,26.133 375.172 C 27.006 373.759,26.473 372.603,24.948 372.603 C 17.522 372.603,11.587 200.575,18.165 176.027 C 21.167 164.825,31.668 169.112,107.587 212.527 M276.671 184.951 C 287.582 198.091,288.500 198.939,285.521 193.120 C 283.969 190.089,279.811 185.167,276.281 182.181 C 270.089 176.943,270.103 177.040,276.671 184.951 M29.002 185.088 C 25.141 188.949,25.152 189.988,29.122 196.047 C 37.249 208.451,46.762 202.721,41.027 188.876 C 37.236 179.723,35.055 179.035,29.002 185.088 M332.877 194.521 C 335.214 199.041,337.743 202.740,338.497 202.740 C 339.250 202.740,337.954 199.041,335.616 194.521 C 333.279 190.000,330.750 186.301,329.996 186.301 C 329.243 186.301,330.539 190.000,332.877 194.521 M262.768 196.801 C 264.245 199.562,267.607 203.568,270.237 205.705 C 273.197 208.108,272.535 206.195,268.502 200.685 C 261.306 190.855,258.608 189.028,262.768 196.801 M306.163 199.590 C 304.328 206.606,313.159 217.757,318.828 215.582 C 323.935 213.622,324.565 207.506,320.452 199.820 C 316.847 193.084,307.902 192.940,306.163 199.590 M317.808 207.173 C 317.808 209.433,316.575 210.520,315.068 209.589 C 313.562 208.658,312.329 206.046,312.329 203.786 C 312.329 201.526,313.562 200.439,315.068 201.370 C 316.575 202.301,317.808 204.912,317.808 207.173 M228.218 206.230 C 224.471 212.199,212.192 218.719,202.463 219.905 L 193.151 221.041 201.898 221.479 C 211.330 221.952,228.690 213.203,231.176 206.723 C 233.062 201.810,231.189 201.498,228.218 206.230 M249.937 235.320 C 228.945 248.106,223.542 253.275,242.466 242.466 C 265.790 229.144,272.708 224.675,269.863 224.765 C 268.356 224.812,259.389 229.562,249.937 235.320 M60.794 232.462 C 33.945 246.777,30.999 315.221,55.839 347.557 C 57.946 350.300,57.327 352.280,53.483 355.091 C 50.614 357.188,49.490 358.904,50.983 358.904 C 52.477 358.904,55.073 357.530,56.753 355.850 C 58.999 353.603,61.034 355.167,64.443 361.760 C 80.409 392.635,113.311 414.873,143.191 414.986 L 164.846 415.068 173.519 403.147 C 217.145 343.180,122.349 199.643,60.794 232.462 M332.709 301.370 C 332.709 342.808,333.090 359.760,333.555 339.041 C 334.020 318.322,334.020 284.418,333.555 263.699 C 333.090 242.979,332.709 259.932,332.709 301.370 M253.425 242.429 C 241.370 249.140,232.490 254.668,233.691 254.713 C 236.374 254.813,276.712 232.822,276.712 231.259 C 276.712 229.481,276.480 229.593,253.425 242.429 M340.925 302.740 C 340.924 343.425,341.305 360.450,341.773 340.575 C 342.240 320.699,342.241 287.411,341.775 266.602 C 341.309 245.793,340.927 262.055,340.925 302.740 M104.975 241.453 C 126.264 252.471,162.866 290.604,157.136 295.795 C 155.848 296.961,141.233 305.473,124.658 314.711 C 108.082 323.948,95.646 331.506,97.021 331.506 C 98.396 331.507,112.682 324.110,128.767 315.068 C 164.083 295.219,160.408 295.281,169.183 314.384 C 204.189 390.589,145.495 426.735,93.264 361.136 C 87.174 353.487,82.192 345.644,82.192 343.706 C 82.192 341.768,80.948 339.768,79.429 339.262 C 74.103 337.487,60.570 299.028,60.092 284.316 C 58.962 249.463,80.573 228.824,104.975 241.453 M263.530 251.830 C 240.304 265.444,230.381 272.568,245.205 264.986 C 261.405 256.701,291.641 238.357,288.998 238.419 C 287.515 238.454,276.054 244.489,263.530 251.830 M267.123 271.233 C 250.548 280.203,238.036 287.571,239.319 287.607 C 242.188 287.686,298.630 257.562,298.630 255.951 C 298.630 254.160,299.030 253.966,267.123 271.233 M310.678 298.630 C 310.678 320.479,311.103 329.418,311.623 318.493 C 312.143 307.568,312.143 289.692,311.623 278.767 C 311.103 267.842,310.678 276.781,310.678 298.630 M327.123 300.000 C 327.127 322.603,327.551 331.485,328.066 319.738 C 328.581 307.991,328.578 289.498,328.059 278.642 C 327.540 267.786,327.119 277.397,327.123 300.000 M177.396 273.562 C 175.561 280.578,184.392 291.730,190.060 289.555 C 195.168 287.595,195.798 281.479,191.684 273.792 C 188.080 267.057,179.134 266.913,177.396 273.562 M55.276 306.136 C 64.895 344.910,82.453 370.932,116.438 396.789 C 123.245 401.967,123.480 402.472,117.808 399.725 C 81.774 382.275,45.664 322.792,46.893 282.911 C 47.068 277.242,47.765 275.068,48.443 278.082 C 49.120 281.096,52.195 293.720,55.276 306.136 M189.041 281.145 C 189.041 283.406,187.808 284.493,186.301 283.562 C 184.795 282.630,183.562 280.019,183.562 277.759 C 183.562 275.499,184.795 274.411,186.301 275.342 C 187.808 276.274,189.041 278.885,189.041 281.145 M26.601 361.654 C 24.693 368.949,33.321 379.549,39.299 377.255 C 44.477 375.268,45.132 369.185,40.999 361.464 C 37.294 354.540,28.431 354.657,26.601 361.654 M306.163 372.193 C 304.328 379.208,313.159 390.360,318.828 388.185 C 323.935 386.225,324.565 380.109,320.452 372.423 C 316.847 365.687,307.902 365.543,306.163 372.193 M317.808 379.775 C 317.808 382.036,316.575 383.123,315.068 382.192 C 313.562 381.260,312.329 378.649,312.329 376.389 C 312.329 374.129,313.562 373.041,315.068 373.973 C 316.575 374.904,317.808 377.515,317.808 379.775 M160.959 401.962 C 156.815 402.590,150.034 402.590,145.890 401.962 C 141.747 401.335,145.137 400.821,153.425 400.821 C 161.712 400.821,165.103 401.335,160.959 401.962 M179.749 445.300 C 174.415 450.634,179.189 463.014,186.579 463.014 C 193.731 463.014,195.489 458.267,191.712 449.150 C 187.930 440.018,185.737 439.312,179.749 445.300 M187.773 456.975 C 185.363 459.386,180.789 451.585,182.752 448.409 C 183.614 447.014,185.495 447.972,186.932 450.539 C 188.368 453.105,188.747 456.002,187.773 456.975 " stroke="none" fill="#EEEEEE" fill-rule="evenodd"/>
  </g></svg>