<svg viewBox="0 0 500 500" xmlns="http://www.w3.org/2000/svg"><g xmlns="http://www.w3.org/2000/svg" id="g-2" transform="matrix(0.092916, 0, 0, 0.092916, 109.531517, 336.973602)" style="">
    <path id="path-2" d="M163.636 16.440 C 78.571 32.924,17.344 206.637,65.467 294.966 C 71.051 305.213,70.970 308.784,65.103 311.154 C 60.506 313.011,61.545 314.381,67.773 314.673 C 73.382 314.936,79.622 320.355,81.641 326.714 C 93.714 364.752,180.574 406.061,248.485 406.061 C 379.552 406.061,428.077 321.425,373.578 187.879 C 358.451 150.812,358.130 148.053,368.145 141.173 C 394.250 123.239,400.924 115.330,379.452 127.771 C 356.372 141.146,355.708 141.189,347.975 129.808 C 307.627 70.423,294.798 59.404,270.528 63.285 C 241.105 67.990,219.787 55.492,217.082 31.951 C 215.042 14.197,199.094 9.569,163.636 16.440 M196.817 37.879 C 191.925 57.423,237.212 82.252,267.416 76.585 C 338.765 63.200,417.325 298.374,361.106 357.054 C 337.423 381.774,279.966 400.599,271.946 386.267 C 264.729 373.371,237.278 372.384,232.495 384.848 C 227.892 396.843,209.183 395.844,175.758 381.818 C 152.644 372.119,150.920 370.323,164.454 370.036 C 239.118 368.452,182.869 183.977,106.845 181.100 C 83.032 180.199,83.929 180.099,71.025 185.120 C 57.557 190.360,62.885 139.669,76.659 131.517 C 81.163 128.851,84.848 119.410,84.848 110.537 C 84.848 90.651,144.724 32.241,168.932 28.511 C 200.114 23.706,200.346 23.784,196.817 37.879 M231.622 179.152 C 212.360 192.644,214.400 206.061,235.715 206.061 C 255.757 206.061,265.489 190.164,253.057 177.732 C 246.438 171.114,242.750 171.358,231.622 179.152 M133.675 207.272 C 173.840 236.967,174.030 246.055,134.906 266.249 C 115.708 276.158,102.136 284.397,104.747 284.557 C 107.358 284.717,123.371 277.816,140.332 269.222 C 177.482 250.396,182.785 253.805,186.526 298.918 C 193.078 377.923,128.132 378.205,83.862 299.362 C 41.803 224.459,74.689 163.661,133.675 207.272 " stroke="none" fill="#EEEEEE" fill-rule="evenodd"/>
  </g></svg>