<svg viewBox="0 0 500 500" xmlns="http://www.w3.org/2000/svg"><g xmlns="http://www.w3.org/2000/svg" id="g-1" transform="matrix(0.132258, 0, 0, 0.132258, 37.378544, 364.777924)" style="">
    <path id="path-1" d="M142.990 37.682 C 138.646 40.971,135.042 41.429,130.910 39.217 C 113.930 30.130,89.136 38.704,79.715 56.923 C 76.858 62.448,71.031 69.713,66.768 73.067 C 57.208 80.587,56.607 94.413,65.357 105.537 C 82.932 127.880,72.052 184.977,46.240 205.867 C 42.478 208.912,42.085 210.756,44.836 212.456 C 50.456 215.929,65.986 279.588,62.149 283.424 C 52.383 293.191,66.551 323.638,82.330 326.794 C 87.540 327.836,91.803 329.980,91.803 331.557 C 91.803 333.135,93.437 334.426,95.433 334.426 C 97.451 334.426,98.145 332.037,96.997 329.044 C 95.215 324.401,95.667 324.272,100.284 328.105 C 103.615 330.869,104.263 333.005,101.999 333.760 C 95.300 335.993,98.231 339.600,120.492 356.512 C 156.837 384.125,192.694 398.061,206.007 389.747 C 212.133 385.921,239.344 399.470,239.344 406.347 C 239.344 426.214,285.407 437.143,313.227 423.876 C 322.971 419.230,334.426 402.234,334.426 392.422 C 334.426 390.180,338.852 384.462,344.262 379.714 C 359.223 366.586,356.746 344.262,340.328 344.262 C 333.151 344.262,331.670 282.704,338.220 256.690 C 341.158 245.023,341.049 234.594,337.736 210.466 C 333.680 180.923,333.780 179.086,339.680 175.012 C 351.682 166.724,354.099 163.615,354.127 156.428 C 354.148 151.179,359.574 145.690,373.799 136.524 C 384.603 129.563,393.443 123.206,393.443 122.396 C 393.443 120.574,389.200 123.027,370.831 135.473 C 358.971 143.508,355.346 144.571,350.383 141.472 C 342.318 136.435,330.875 136.878,323.434 142.515 C 317.143 147.281,298.341 137.047,275.410 116.377 C 270.902 112.313,261.311 107.173,254.098 104.955 C 220.224 94.539,171.527 62.981,173.073 52.447 C 175.661 34.815,158.137 26.214,142.990 37.682 M165.223 44.530 C 170.026 57.047,167.780 59.181,155.811 53.473 C 146.943 49.244,145.211 47.070,148.016 43.690 C 152.955 37.739,162.801 38.220,165.223 44.530 M112.679 46.721 C 110.918 49.653,111.753 49.574,115.611 46.447 C 120.300 42.646,132.940 48.809,212.142 93.512 C 306.005 146.488,315.413 152.784,323.262 167.870 C 330.985 182.714,329.957 395.926,322.131 402.341 C 318.975 404.927,318.221 406.120,320.454 404.991 C 323.071 403.668,323.855 404.657,322.660 407.773 C 320.572 413.214,312.252 417.260,308.244 414.784 C 306.793 413.886,304.723 415.451,303.645 418.259 C 299.162 429.944,296.361 418.485,298.961 399.086 C 300.498 387.609,301.334 341.439,300.818 296.486 L 299.880 214.754 299.120 302.302 L 298.361 389.851 289.685 381.811 C 278.269 371.230,266.201 371.653,250.272 383.193 C 238.065 392.035,236.703 392.321,228.137 387.832 C 218.097 382.572,221.073 378.241,239.921 370.684 C 247.383 367.692,247.352 367.624,238.409 367.421 C 233.387 367.307,225.595 369.626,221.094 372.575 C 207.958 381.182,209.346 376.946,228.181 350.949 C 249.365 321.707,249.162 324.372,232.705 291.640 C 225.447 277.204,215.711 253.262,211.071 238.434 C 197.341 194.568,195.543 191.925,172.737 182.097 C 150.910 172.691,105.030 144.250,104.960 140.083 C 104.937 138.686,108.628 136.132,113.162 134.408 C 125.089 129.874,140.984 117.473,140.984 112.702 C 140.984 108.799,97.800 132.675,95.791 137.688 C 95.279 138.966,91.484 144.587,87.357 150.180 L 79.855 160.349 80.091 139.191 C 80.323 118.444,80.500 118.034,89.190 118.033 C 111.145 118.032,120.688 106.158,117.000 83.429 C 114.616 68.739,108.538 66.216,189.662 113.588 C 269.409 160.156,268.517 159.659,263.934 155.021 C 257.194 148.200,117.499 68.294,115.613 70.180 C 112.091 73.701,102.033 61.830,103.809 56.249 C 104.876 52.896,104.478 52.183,102.768 54.386 C 97.175 61.592,84.954 62.409,88.746 55.324 C 90.608 51.844,93.379 49.767,94.903 50.709 C 96.427 51.651,98.520 50.217,99.554 47.522 C 100.588 44.828,104.518 42.623,108.287 42.623 C 112.898 42.623,114.335 43.964,112.679 46.721 M122.951 61.373 C 127.830 66.242,269.175 148.315,270.446 147.017 C 271.046 146.403,246.309 131.148,215.473 113.115 C 144.397 71.549,118.810 57.240,122.951 61.373 M103.887 72.703 C 121.075 88.850,113.343 107.619,88.525 109.992 C 82.213 110.595,79.631 110.330,82.787 109.403 C 85.943 108.475,88.577 104.504,88.641 100.579 C 88.752 93.723,88.941 93.764,93.443 101.639 C 99.541 112.307,99.699 104.631,93.677 90.220 C 89.207 79.521,88.500 79.153,78.125 82.129 C 64.700 85.979,64.733 85.980,67.232 81.937 C 69.026 79.034,91.059 66.105,94.871 65.719 C 95.656 65.639,99.713 68.782,103.887 72.703 M157.377 119.049 C 157.377 119.951,169.247 127.647,183.755 136.152 C 216.974 155.627,215.689 159.280,182.104 140.847 C 168.326 133.286,156.513 127.641,155.851 128.304 C 155.189 128.966,169.473 137.429,187.593 147.109 C 205.713 156.790,219.519 163.060,218.273 161.044 C 217.026 159.027,217.938 157.373,220.298 157.369 C 224.275 157.361,212.180 149.481,172.951 126.524 C 164.385 121.511,157.377 118.147,157.377 119.049 M345.551 149.448 C 349.126 158.766,347.670 162.823,339.399 166.592 C 328.505 171.555,317.978 155.740,327.402 148.568 C 334.885 142.875,343.183 143.277,345.551 149.448 M124.479 163.859 C 135.166 171.116,154.698 181.971,167.884 187.980 L 191.859 198.905 201.492 229.781 C 206.791 246.762,217.475 273.536,225.235 289.279 C 242.702 324.714,243.429 318.710,217.213 355.585 C 192.245 390.706,195.101 389.405,169.148 377.481 L 149.771 368.579 172.965 369.889 L 196.160 371.200 205.457 357.156 C 248.462 292.196,168.488 159.639,92.864 170.535 L 79.171 172.508 87.946 160.076 C 97.920 145.945,98.132 145.967,124.479 163.859 M281.967 160.656 C 281.967 162.459,279.608 163.934,276.725 163.934 C 273.842 163.934,266.421 166.336,260.234 169.272 C 249.781 174.233,248.551 174.218,242.851 169.059 C 238.233 164.879,236.106 164.496,234.245 167.506 C 232.554 170.243,233.144 170.658,236.116 168.821 C 239.296 166.856,239.880 167.644,238.300 171.764 C 237.017 175.105,237.457 176.576,239.382 175.387 C 241.164 174.285,242.623 174.859,242.623 176.662 C 242.623 178.465,241.270 180.777,239.616 181.799 C 235.620 184.269,241.741 206.472,248.517 214.092 C 251.401 217.334,254.032 221.760,254.364 223.928 C 255.541 231.614,276.080 282.390,277.456 281.014 C 278.224 280.246,275.865 272.646,272.214 264.127 C 262.310 241.023,264.491 238.276,275.620 259.836 C 288.976 285.712,290.947 283.724,277.989 257.447 C 272.227 245.764,266.647 237.607,265.588 239.321 C 264.529 241.035,262.008 238.052,259.985 232.694 C 256.414 223.233,256.593 222.951,266.172 222.951 C 276.232 222.951,295.082 213.870,295.082 209.024 C 295.082 207.551,298.402 205.012,302.459 203.381 C 308.111 201.109,308.494 200.367,304.098 200.208 C 300.270 200.069,298.361 197.357,298.361 192.055 C 298.361 187.685,294.892 179.939,290.652 174.842 C 286.412 169.744,283.584 163.730,284.368 161.475 C 285.151 159.221,284.932 157.377,283.880 157.377 C 282.828 157.377,281.967 158.852,281.967 160.656 M298.593 168.852 C 298.593 170.656,300.702 175.820,303.279 180.328 C 305.856 184.836,307.964 187.049,307.964 185.246 C 307.964 183.443,305.856 178.279,303.279 173.770 C 300.702 169.262,298.593 167.049,298.593 168.852 M284.215 177.621 C 299.685 192.154,291.810 211.765,269.245 214.896 C 264.521 215.551,262.500 215.296,264.754 214.328 C 267.008 213.360,268.852 210.565,268.852 208.117 C 268.852 205.669,270.190 202.839,271.825 201.828 C 273.460 200.818,273.966 203.175,272.948 207.066 C 271.619 212.148,272.242 213.433,275.159 211.630 C 277.717 210.049,278.417 205.923,277.051 200.480 C 273.563 186.584,269.891 184.063,257.280 186.907 C 242.367 190.271,242.793 185.933,258.197 177.590 C 273.922 169.073,275.118 169.075,284.215 177.621 M143.567 189.718 C 196.152 223.461,227.850 315.067,200.306 353.686 C 175.670 388.229,107.480 346.276,78.319 278.637 C 45.023 201.408,82.403 150.469,143.567 189.718 M211.934 182.393 C 205.682 185.780,203.648 188.566,205.834 190.752 C 208.020 192.938,212.239 192.337,218.491 188.950 C 223.649 186.156,225.938 183.810,223.577 183.738 C 221.216 183.666,220.197 182.131,221.311 180.328 C 223.909 176.125,223.223 176.276,211.934 182.393 M93.975 189.432 C 38.212 223.297,98.641 354.098,170.049 354.098 C 185.546 354.098,187.201 353.285,194.964 341.862 C 232.560 286.535,146.922 157.276,93.975 189.432 M121.311 202.171 C 121.311 236.789,155.143 296.150,185.602 314.974 C 198.592 323.003,199.019 325.269,189.941 338.018 C 161.669 377.722,75.162 297.525,78.199 234.426 C 79.854 200.041,121.311 169.024,121.311 202.171 M61.990 206.022 C 60.003 211.722,57.023 215.548,55.366 214.525 C 53.705 213.498,54.872 208.401,57.972 203.154 C 64.999 191.258,66.711 192.480,61.990 206.022 M139.190 200.526 C 145.793 203.535,147.541 206.702,147.541 215.660 C 147.541 238.013,157.789 258.725,177.869 276.955 C 195.682 293.127,203.914 311.475,193.356 311.475 C 174.974 311.475,127.869 235.639,127.869 206.044 C 127.869 195.417,127.920 195.391,139.190 200.526 M189.613 264.931 C 194.553 281.028,192.105 281.826,178.276 268.628 C 165.383 256.325,154.098 233.837,154.098 220.448 C 154.098 209.296,184.053 246.815,189.613 264.931 M309.635 304.918 C 309.635 354.508,310.091 374.795,310.648 350.000 C 311.205 325.205,311.205 284.631,310.648 259.836 C 310.091 235.041,309.635 255.328,309.635 304.918 M286.712 294.802 C 287.731 296.451,286.787 298.394,284.612 299.118 C 282.118 299.950,282.715 301.225,286.231 302.574 C 290.312 304.140,291.803 302.985,291.803 298.258 C 291.803 294.708,290.241 291.803,288.331 291.803 C 286.421 291.803,285.693 293.153,286.712 294.802 M261.475 308.459 C 253.603 313.045,254.214 318.958,262.295 316.393 C 270.986 313.635,270.592 315.921,259.574 332.196 C 245.960 352.308,244.273 355.492,248.674 352.772 C 250.756 351.485,252.459 352.194,252.459 354.347 C 252.459 356.500,255.139 354.743,258.415 350.442 C 276.804 326.300,282.564 318.033,280.996 318.033 C 280.034 318.033,273.781 325.479,267.100 334.580 C 252.489 354.484,247.866 353.885,261.363 333.837 C 275.100 313.431,275.158 300.490,261.475 308.459 M345.551 356.006 C 349.032 365.077,347.724 370.163,340.984 373.770 C 334.930 377.010,334.426 376.264,334.426 364.050 C 334.426 350.411,341.454 345.330,345.551 356.006 M283.722 385.623 C 295.271 393.191,295.297 413.749,283.764 419.004 C 277.316 421.942,276.058 421.797,277.410 418.274 C 281.980 406.366,269.822 390.344,258.649 393.548 C 244.208 397.690,243.471 395.641,256.420 387.349 C 269.462 378.998,273.246 378.759,283.722 385.623 M272.131 416.393 C 272.131 421.121,270.072 422.845,264.754 422.570 C 259.203 422.284,258.797 421.819,263.115 420.691 C 266.270 419.866,268.852 417.086,268.852 414.514 C 268.852 411.941,269.590 409.836,270.492 409.836 C 271.393 409.836,272.131 412.787,272.131 416.393 " stroke="none" fill="#EEEEEE" fill-rule="evenodd"/>
  </g></svg>