<svg viewBox="0 0 500 500" xmlns="http://www.w3.org/2000/svg"><g xmlns="http://www.w3.org/2000/svg" id="g-3" transform="matrix(0.092916, 0, 0, 0.092916, 162.890503, 308.562866)" style="">
    <path id="path-3" d="M111.205 29.310 C 103.817 32.273,92.078 35.753,85.118 37.043 C 22.855 48.584,-7.769 153.301,29.455 227.379 C 128.215 423.918,246.100 457.620,329.094 313.043 C 409.606 172.789,255.108 -28.398,111.205 29.310 M212.528 47.340 C 274.361 70.280,314.350 106.493,308.964 134.670 C 306.589 147.092,308.467 150.107,319.567 151.694 C 349.396 155.960,348.817 257.752,318.663 310.455 C 293.583 354.291,290.014 353.977,293.846 308.271 C 299.062 246.050,272.401 178.644,216.949 113.856 C 200.930 95.140,198.890 89.732,204.477 80.787 C 208.150 74.905,209.950 69.072,208.476 67.824 C 207.003 66.576,195.409 58.632,182.712 50.169 C 154.607 31.436,166.593 30.299,212.528 47.340 M144.928 57.971 C 144.928 65.700,141.063 69.565,133.333 69.565 C 119.069 69.565,117.895 54.028,131.884 50.373 C 137.464 48.915,142.681 47.419,143.478 47.049 C 144.275 46.679,144.928 51.594,144.928 57.971 M110.145 66.389 C 110.145 88.935,188.092 132.976,192.329 112.823 C 193.569 106.922,202.043 113.821,217.391 133.228 C 245.038 168.186,247.495 173.913,234.841 173.913 C 228.839 173.913,225.965 177.693,227.178 183.991 C 229.845 197.840,247.747 200.369,250.511 187.287 C 254.109 170.259,279.647 242.708,282.601 278.325 C 290.372 372.019,228.938 417.516,157.029 371.321 C 107.155 339.282,49.786 266.667,74.347 266.667 C 83.017 266.667,85.120 263.795,82.839 255.072 C 79.555 242.514,58.145 238.811,57.701 250.725 C 57.553 254.710,50.942 245.503,43.010 230.264 C 12.780 172.181,26.668 69.899,66.352 58.366 C 99.361 48.772,110.145 50.748,110.145 66.389 M179.095 63.102 C 197.698 77.405,190.205 90.302,170.712 77.530 C 162.907 72.416,156.522 64.619,156.522 60.203 C 156.522 49.504,162.389 50.257,179.095 63.102 M70.656 79.644 C 73.566 94.755,92.754 96.440,92.754 81.584 C 92.754 73.288,89.031 69.565,80.734 69.565 C 72.438 69.565,69.316 72.687,70.656 79.644 M362.319 96.164 C 343.188 106.862,329.579 115.689,332.077 115.779 C 339.598 116.049,393.108 87.621,397.033 81.270 C 401.572 73.925,403.766 72.984,362.319 96.164 M168.923 93.040 L 182.609 104.921 162.319 95.202 C 137.125 83.133,134.862 81.159,146.218 81.159 C 151.178 81.159,161.396 86.506,168.923 93.040 M101.459 135.750 C 73.473 158.066,82.398 223.418,120.747 276.973 C 147.352 314.128,198.975 325.843,216.725 298.755 C 259.004 234.228,157.672 90.928,101.459 135.750 M162.833 157.818 C 218.789 199.189,235.398 301.449,186.161 301.449 C 144.995 301.449,98.940 241.035,97.686 185.389 C 96.614 137.777,121.487 127.250,162.833 157.818 M133.333 231.884 C 122.174 237.994,115.130 243.102,117.679 243.235 C 123.822 243.557,156.522 226.556,156.522 223.040 C 156.522 219.245,156.182 219.375,133.333 231.884 M215.517 357.491 C 218.338 372.034,231.884 374.031,231.884 359.903 C 231.884 352.783,228.141 347.826,222.763 347.826 C 217.365 347.826,214.408 351.770,215.517 357.491 " stroke="none" fill="#EEEEEE" fill-rule="evenodd"/>
  </g></svg>