<svg viewBox="0 0 500 500" xmlns="http://www.w3.org/2000/svg"><g xmlns="http://www.w3.org/2000/svg" id="g-4" transform="matrix(0.117783, 0, 0, 0.117783, 311.818451, 211.187286)" style="">
    <path id="path-4" d="M50.868 37.258 C 35.797 47.187,32.302 51.507,30.316 62.664 C 28.741 71.507,24.143 79.277,16.878 85.373 C 4.538 95.727,7.154 114.114,21.620 118.705 C 27.855 120.684,33.019 196.074,27.915 210.619 C 26.073 215.869,26.670 249.803,29.081 276.836 L 31.198 300.575 19.139 307.690 C 5.745 315.593,4.311 321.687,12.796 334.638 C 19.391 344.702,31.603 346.013,43.873 337.973 C 51.238 333.147,52.566 333.147,56.571 337.973 C 59.031 340.938,63.238 343.363,65.920 343.363 C 68.602 343.363,70.796 344.879,70.796 346.733 C 70.796 351.807,99.544 370.559,119.202 378.307 C 155.143 392.474,205.368 422.560,203.404 428.747 C 197.658 446.850,219.716 462.200,236.894 452.052 C 243.149 448.357,248.077 447.574,251.488 449.731 C 266.829 459.436,297.377 448.874,304.633 431.356 C 306.859 425.982,312.502 419.080,317.172 416.020 C 327.890 408.997,328.475 392.266,318.571 376.021 C 305.171 354.043,308.455 321.531,327.100 291.571 L 342.695 266.510 330.973 227.063 C 324.526 205.367,320.694 186.724,322.457 185.635 C 327.057 182.792,326.315 166.096,321.135 155.858 C 313.862 141.485,283.005 123.252,288.006 136.283 C 289.392 139.895,287.815 141.593,283.075 141.593 C 279.242 141.593,276.106 139.906,276.106 137.844 C 276.106 135.782,277.945 135.232,280.193 136.621 C 282.668 138.151,283.321 137.596,281.849 135.215 C 280.513 133.052,277.159 132.150,274.396 133.210 C 268.185 135.593,172.765 81.850,175.462 77.487 C 180.714 68.989,228.544 90.063,259.718 114.611 C 279.804 130.427,286.726 133.931,286.726 128.282 C 286.726 109.683,187.130 60.865,170.444 71.286 C 162.188 76.442,132.485 60.078,128.959 48.431 C 123.605 30.753,100.533 17.432,93.889 28.183 C 92.542 30.363,88.563 30.363,82.830 28.183 C 71.029 23.696,71.771 23.486,50.868 37.258 M113.881 37.717 C 123.852 46.741,121.555 50.360,109.735 44.248 C 99.088 38.742,95.491 31.858,103.261 31.858 C 105.541 31.858,110.320 34.495,113.881 37.717 M173.023 89.085 C 284.804 152.770,284.718 152.713,295.771 170.222 L 304.425 183.930 304.425 302.153 L 304.425 420.375 296.460 426.281 C 292.080 429.529,290.487 431.222,292.920 430.044 C 295.354 428.865,297.345 429.417,297.345 431.271 C 297.345 433.124,294.956 435.558,292.035 436.678 C 287.379 438.465,286.726 423.689,286.726 316.562 C 286.726 156.391,301.821 182.299,161.062 100.878 C 53.677 38.762,58.741 42.026,64.288 38.510 C 73.235 32.839,79.020 35.530,173.023 89.085 M146.226 101.272 C 262.040 168.438,268.374 172.541,274.486 184.360 C 278.722 192.552,279.646 216.865,279.646 320.178 L 279.646 446.018 269.235 446.018 C 255.776 446.018,251.925 439.811,263.572 436.888 C 274.381 434.175,275.943 419.064,266.850 405.185 C 260.586 395.626,245.265 393.231,242.158 401.326 C 241.131 404.003,234.214 408.933,226.786 412.282 L 213.282 418.372 185.402 403.290 C 140.922 379.228,140.370 376.066,180.531 375.392 C 239.151 374.409,266.883 321.115,244.216 253.002 L 236.244 229.046 244.671 222.409 C 249.305 218.758,257.478 214.811,262.832 213.638 C 281.902 209.459,271.493 173.451,251.215 173.451 C 245.761 173.451,240.767 174.704,240.118 176.234 C 239.469 177.765,233.641 182.737,227.166 187.285 L 215.395 195.553 205.186 183.617 C 199.572 177.052,194.913 170.546,194.834 169.158 C 194.564 164.417,154.013 139.189,138.018 133.811 C 111.344 124.841,71.955 141.196,61.822 165.447 C 58.941 172.342,52.215 181.742,46.876 186.337 L 37.168 194.690 36.132 158.407 C 34.980 118.056,38.071 112.281,66.372 101.909 C 75.653 98.507,77.876 95.754,77.876 87.660 C 77.876 65.244,55.268 51.015,44.042 66.366 C 37.783 74.927,34.447 70.219,38.751 58.898 C 44.521 43.722,52.235 46.763,146.226 101.272 M67.960 76.237 C 72.625 86.474,70.502 89.389,49.110 102.128 L 36.272 109.772 31.697 98.725 C 27.857 89.454,27.929 87.197,32.144 84.688 C 34.907 83.044,41.947 78.565,47.788 74.736 C 61.769 65.570,63.147 65.672,67.960 76.237 M23.968 105.531 C 26.091 111.902,18.775 110.563,16.306 104.129 C 14.983 100.682,15.774 99.063,18.360 99.925 C 20.674 100.697,23.197 103.219,23.968 105.531 M138.410 142.154 C 165.620 151.429,204.890 185.203,205.177 199.577 C 205.268 204.161,200.925 200.728,191.235 188.558 C 173.527 166.318,155.274 152.108,134.667 144.522 C 116.552 137.854,119.788 135.807,138.410 142.154 M129.458 151.040 C 219.976 181.695,270.867 355.942,192.474 366.805 L 178.761 368.705 192.655 360.459 C 255.081 323.407,209.402 182.225,126.856 157.090 C 114.098 153.205,101.902 155.712,72.957 168.169 C 62.706 172.581,70.543 160.514,83.458 152.000 C 96.179 143.615,106.872 143.392,129.458 151.040 M311.248 154.460 C 318.955 164.258,320.975 178.635,315.151 182.235 C 313.263 183.402,309.528 179.115,306.850 172.709 C 304.172 166.303,299.363 158.890,296.163 156.236 C 292.962 153.582,291.216 149.998,292.283 148.271 C 295.874 142.462,303.860 145.068,311.248 154.460 M148.283 175.384 C 197.328 207.840,229.793 290.067,210.018 331.741 C 205.135 342.031,187.457 357.476,180.531 357.503 C 179.558 357.506,178.761 342.778,178.761 324.772 C 178.761 260.169,123.681 181.861,77.109 180.252 C 71.040 180.042,73.437 177.800,86.726 171.253 C 108.397 160.576,127.883 161.883,148.283 175.384 M261.822 187.378 C 267.667 198.298,266.436 200.541,248.981 210.770 C 232.045 220.695,223.009 218.111,223.009 203.342 C 223.009 190.803,256.322 177.101,261.822 187.378 M99.115 200.000 C 107.876 204.691,112.365 208.602,109.091 208.690 C 100.965 208.908,88.496 227.265,88.496 239.009 C 88.496 275.196,126.202 320.239,154.604 317.981 L 169.912 316.763 169.912 332.941 C 169.912 383.128,106.472 377.971,68.195 324.672 L 56.892 308.933 64.729 305.003 C 72.262 301.226,72.213 301.147,63.470 302.972 C 55.603 304.615,53.578 303.049,48.477 291.374 C 18.495 222.746,46.665 171.914,99.115 200.000 M323.866 226.890 C 334.291 262.417,334.950 271.966,326.930 271.288 C 323.732 271.018,320.414 272.788,319.555 275.221 C 318.697 277.655,319.814 279.646,322.038 279.646 C 324.262 279.646,324.945 277.807,323.556 275.559 C 321.977 273.005,322.586 272.434,325.181 274.038 C 328.824 276.289,324.629 285.178,312.651 300.590 C 312.020 301.401,311.504 277.640,311.504 247.788 C 311.504 217.935,312.322 194.328,313.321 195.327 C 314.320 196.326,319.065 210.529,323.866 226.890 M218.248 214.312 C 221.541 222.893,216.946 224.443,212.552 216.232 C 209.812 211.113,209.758 208.850,212.376 208.850 C 214.452 208.850,217.095 211.308,218.248 214.312 M131.512 225.664 C 155.110 251.352,174.356 296.574,165.985 306.661 C 148.861 327.294,95.575 277.755,95.575 241.202 C 95.575 217.409,115.868 208.635,131.512 225.664 M237.310 253.523 C 243.573 272.345,244.789 282.472,243.486 304.980 C 241.064 346.821,235.450 345.713,235.101 303.327 C 234.869 275.017,233.166 263.258,227.189 248.673 C 221.165 233.976,220.612 230.088,224.542 230.088 C 227.522 230.088,232.633 239.469,237.310 253.523 M49.558 320.906 C 49.558 323.386,46.372 327.120,42.478 329.204 C 33.340 334.094,32.671 326.880,41.593 319.664 C 47.265 315.076,47.161 314.955,40.365 318.223 C 29.118 323.632,21.903 315.101,32.709 309.170 C 41.134 304.547,49.558 310.414,49.558 320.906 M23.557 327.586 C 26.850 336.168,22.255 337.717,17.861 329.507 C 15.122 324.387,15.068 322.124,17.686 322.124 C 19.762 322.124,22.404 324.582,23.557 327.586 M318.584 396.460 C 318.584 402.071,316.991 407.646,315.044 408.850 C 312.903 410.173,311.504 405.277,311.504 396.460 C 311.504 387.643,312.903 382.748,315.044 384.071 C 316.991 385.274,318.584 390.849,318.584 396.460 M265.487 420.139 C 265.487 422.684,257.920 429.497,248.673 435.280 L 231.858 445.794 226.549 434.709 C 223.328 427.986,222.632 423.148,224.779 422.413 C 226.726 421.746,234.690 417.297,242.478 412.526 C 257.134 403.548,265.487 406.311,265.487 420.139 M218.658 441.814 C 220.782 448.185,213.465 446.847,210.996 440.412 C 209.673 436.965,210.464 435.346,213.051 436.209 C 215.364 436.980,217.887 439.502,218.658 441.814 " stroke="none" fill="#EEEEEE" fill-rule="evenodd"/>
  </g></svg>