<svg viewBox="0 0 500 500" xmlns="http://www.w3.org/2000/svg"><g xmlns="http://www.w3.org/2000/svg" id="g-9" transform="matrix(0.114927, 0, 0, 0.114927, 297.411835, 158.699463)" style="">
    <path id="path-9" d="M264.726 183.806 C 185.477 230.594,184.276 231.602,187.189 248.843 C 189.431 262.116,220.042 285.714,235.017 285.714 C 247.060 285.714,386.642 205.078,390.945 195.636 C 399.701 176.418,392.481 161.742,368.144 149.285 C 343.156 136.495,347.073 135.187,264.726 183.806 M354.286 148.571 C 356.643 150.095,357.286 151.400,355.714 151.472 C 351.490 151.665,361.990 157.304,369.136 158.680 C 372.523 159.332,376.175 161.292,377.252 163.034 C 378.329 164.777,380.352 166.093,381.748 165.958 C 383.144 165.824,384.397 166.679,384.532 167.857 C 384.668 169.036,385.666 171.978,386.749 174.397 C 387.833 176.815,388.139 181.958,387.429 185.825 C 386.720 189.693,386.043 193.554,385.927 194.406 C 385.810 195.258,372.282 202.883,355.865 211.351 C 339.448 219.819,326.686 227.832,327.506 229.159 C 328.325 230.485,327.936 231.233,326.641 230.820 C 322.385 229.465,305.750 237.746,307.392 240.402 C 308.274 241.830,307.936 242.661,306.641 242.249 C 302.481 240.924,285.731 249.144,287.328 251.727 C 288.175 253.098,286.662 253.374,283.965 252.339 C 280.592 251.044,279.721 251.522,281.172 253.871 C 282.333 255.748,282.222 256.998,280.927 256.648 C 276.392 255.421,265.647 260.436,267.250 263.030 C 268.142 264.474,266.668 264.804,263.965 263.767 C 260.661 262.500,259.730 262.965,261.108 265.196 C 262.495 267.439,261.495 267.910,258.006 266.655 C 255.174 265.637,253.801 265.846,254.956 267.119 C 256.970 269.342,249.431 276.864,245.000 277.052 C 243.821 277.102,242.857 273.201,242.857 268.384 C 242.857 255.163,238.383 249.210,219.448 237.238 C 203.495 227.151,202.692 226.161,208.944 224.285 C 218.540 221.406,328.946 157.210,335.111 150.925 C 340.747 145.180,347.715 144.325,354.286 148.571 M302.857 205.714 C 269.071 224.562,242.585 239.986,243.998 239.991 C 246.914 240.001,365.714 174.111,365.714 172.484 C 365.714 170.655,365.521 170.757,302.857 205.714 M314.286 224.286 C 280.533 243.929,254.067 260.000,255.472 260.000 C 258.092 260.000,370.678 195.285,375.571 190.967 C 382.104 185.202,372.083 190.650,314.286 224.286 M204.454 235.660 C 208.188 238.509,208.973 240.609,206.857 242.089 C 201.964 245.509,200.510 252.349,203.459 258.073 C 205.823 262.661,205.447 262.915,200.339 260.182 C 191.521 255.462,188.534 231.429,196.765 231.429 C 197.944 231.429,201.404 233.333,204.454 235.660 M218.243 252.757 C 223.953 261.472,224.114 265.714,218.733 265.714 C 213.315 265.714,205.728 254.718,207.664 249.672 C 209.884 243.886,213.032 244.804,218.243 252.757 M232.143 253.735 C 238.198 258.934,239.208 280.000,233.403 280.000 C 227.046 280.000,217.345 271.633,223.571 271.519 C 230.065 271.401,230.183 260.716,223.792 251.590 C 218.698 244.318,222.235 245.226,232.143 253.735 " stroke="none" fill="#EEEEEE" fill-rule="evenodd"/>
  </g></svg>