<svg viewBox="0 0 500 500" xmlns="http://www.w3.org/2000/svg"><g xmlns="http://www.w3.org/2000/svg" id="g-5" transform="matrix(0.068407, 0, 0, 0.068407, 237.55864, 62.39912)" style="">
    <path id="path-5" d="M135.870 71.221 C 98.266 93.645,95.423 98.341,87.565 151.018 C 73.409 245.910,266.263 292.760,323.206 208.262 C 390.467 108.454,248.090 4.301,135.870 71.221 M200.000 75.000 C 200.000 79.583,190.757 83.333,179.460 83.333 C 143.786 83.333,131.244 122.911,158.333 150.000 C 210.592 202.259,318.460 144.294,269.542 90.240 C 249.076 67.626,269.082 71.771,294.616 95.435 C 324.381 123.020,322.380 134.164,283.701 156.250 C 191.625 208.826,54.098 141.784,143.773 88.037 C 181.199 65.606,200.000 61.247,200.000 75.000 M258.245 104.061 C 274.172 123.251,262.268 144.081,239.624 136.646 C 221.569 130.718,216.246 130.605,179.167 135.362 C 167.367 136.876,162.500 132.657,162.500 120.915 C 162.500 95.278,239.680 81.691,258.245 104.061 M142.464 183.901 C 169.283 202.998,176.010 227.775,152.083 219.330 C 144.063 216.499,129.063 206.588,118.750 197.306 C 83.211 165.316,101.692 154.869,142.464 183.901 M291.667 203.156 C 291.667 228.665,193.733 244.276,185.791 220.032 C 182.233 209.170,226.492 193.714,264.583 192.517 C 282.454 191.956,291.667 195.575,291.667 203.156 M211.377 354.167 C 211.399 400.000,212.798 417.687,214.487 393.471 C 216.175 369.255,216.158 331.755,214.447 310.137 C 212.737 288.520,211.355 308.333,211.377 354.167 " stroke="none" fill="#EEEEEE" fill-rule="evenodd"/>
  </g></svg>