<svg viewBox="0 0 500 500" xmlns="http://www.w3.org/2000/svg"><g xmlns="http://www.w3.org/2000/svg" id="g-6" transform="matrix(0.109241, 0, 0, 0.109241, 238.470871, 80.684952)" style="">
    <path id="path-6" d="M124.906 15.929 C 124.933 25.664,125.620 29.226,126.434 23.845 C 127.248 18.464,127.226 10.500,126.386 6.146 C 125.545 1.792,124.880 6.195,124.906 15.929 M278.156 66.001 L 211.180 106.658 199.933 100.601 C 190.133 95.324,183.935 95.021,168.142 99.050 C 154.542 102.520,127.819 98.601,126.334 92.920 C 124.792 87.021,124.696 87.021,124.304 92.920 C 123.993 97.618,120.760 99.115,110.931 99.115 C 36.576 99.115,0.090 177.411,46.472 237.434 C 70.731 268.827,176.862 273.120,202.464 243.744 C 208.236 237.121,208.519 237.581,209.774 255.595 L 211.080 274.336 211.735 254.369 C 212.095 243.387,215.540 227.458,219.391 218.971 C 223.242 210.484,226.428 197.566,226.471 190.265 C 226.514 182.965,228.028 176.991,229.836 176.991 C 237.145 176.991,244.250 165.113,244.277 152.845 L 244.307 139.823 306.745 104.425 C 386.109 59.430,388.931 56.362,371.424 34.106 C 359.588 19.058,350.202 22.268,278.156 66.001 M365.208 37.717 C 380.220 51.302,375.051 56.438,307.721 94.836 L 243.845 131.264 234.207 123.154 C 228.906 118.694,223.820 113.844,222.904 112.376 C 220.994 109.315,346.072 32.602,353.704 32.154 C 356.471 31.991,361.648 34.495,365.208 37.717 M203.794 111.841 C 212.415 116.893,219.469 122.734,219.469 124.820 C 219.469 126.907,220.534 127.548,221.837 126.246 C 230.121 117.962,240.841 143.299,232.743 152.024 C 229.687 155.316,229.621 156.059,232.529 154.425 C 235.207 152.921,236.550 154.575,236.219 158.970 C 235.933 162.771,234.436 165.101,232.894 164.148 C 231.351 163.194,230.036 164.499,229.973 167.048 C 229.909 169.596,226.932 163.211,223.356 152.859 C 216.840 133.991,197.339 109.735,188.686 109.735 C 186.148 109.735,184.071 108.142,184.071 106.195 C 184.071 101.002,186.474 101.690,203.794 111.841 M102.655 109.735 C 90.552 113.611,81.245 113.611,90.265 109.735 C 94.159 108.061,100.531 106.739,104.425 106.796 C 110.116 106.880,109.769 107.456,102.655 109.735 M164.602 109.735 C 173.622 113.611,164.316 113.611,152.212 109.735 C 145.098 107.456,144.751 106.880,150.442 106.796 C 154.336 106.739,160.708 108.061,164.602 109.735 M70.473 124.831 C 46.747 146.204,47.121 167.626,71.504 183.839 C 81.522 190.500,81.925 191.264,74.336 189.202 C 35.729 178.711,33.355 129.461,70.796 115.774 C 82.645 111.443,82.556 113.947,70.473 124.831 M152.152 117.470 C 172.511 122.170,191.150 139.398,191.150 153.516 C 191.150 165.030,188.058 166.783,177.427 161.299 C 172.320 158.664,158.982 154.383,147.788 151.785 C 127.948 147.182,127.419 146.748,126.839 134.593 L 126.244 122.124 124.876 135.040 C 123.633 146.785,122.322 148.175,110.427 150.364 C 103.232 151.688,90.209 155.904,81.486 159.733 C 53.644 171.954,49.881 147.096,76.810 128.844 C 97.657 114.715,123.387 110.831,152.152 117.470 M199.222 127.083 C 220.087 147.330,209.845 181.512,180.531 189.465 C 172.085 191.756,172.199 191.381,183.033 181.227 C 202.569 162.920,202.549 147.250,182.960 124.939 C 168.952 108.985,182.399 110.758,199.222 127.083 M123.894 167.543 C 123.894 183.815,112.938 189.699,92.759 184.266 C 67.388 177.434,68.268 172.142,96.391 162.427 C 122.107 153.544,123.894 153.876,123.894 167.543 M149.029 159.596 C 180.497 169.648,181.339 170.231,174.789 177.469 C 168.386 184.544,154.038 186.349,150.442 180.531 C 149.239 178.584,143.570 176.991,137.844 176.991 C 128.637 176.991,127.434 175.764,127.434 166.372 C 127.434 154.613,130.458 153.664,149.029 159.596 M38.938 167.447 C 38.938 186.579,82.716 205.310,127.434 205.310 C 173.353 205.310,197.677 195.766,213.142 171.681 L 219.961 161.062 218.726 186.521 C 216.403 234.404,189.829 255.061,129.204 256.110 C 99.762 256.620,68.225 248.814,55.748 237.931 C 39.497 223.755,22.989 162.832,35.398 162.832 C 37.345 162.832,38.938 164.909,38.938 167.447 M163.585 195.326 C 155.710 198.452,99.157 198.452,91.282 195.326 C 87.948 194.003,104.216 192.920,127.434 192.920 C 150.651 192.920,166.919 194.003,163.585 195.326 " stroke="none" fill="#EEEEEE" fill-rule="evenodd"/>
  </g></svg>