<svg viewBox="0 0 500 500" xmlns="http://www.w3.org/2000/svg"><g xmlns="http://www.w3.org/2000/svg" id="g-8" transform="matrix(0.161875, 0, 0, 0.161875, 227.830414, 162.942978)" style="">
    <path id="path-8" d="M146.103 16.082 C 145.853 19.999,142.552 23.474,136.828 25.845 C 131.438 28.077,126.831 32.711,125.120 37.620 C 123.568 42.072,120.509 45.714,118.323 45.714 C 116.137 45.714,101.576 52.786,85.965 61.429 C 70.354 70.071,54.468 77.143,50.662 77.143 C 43.085 77.143,34.286 85.086,34.286 91.925 C 34.286 94.308,31.714 98.584,28.571 101.429 C 18.699 110.363,20.716 129.096,32.857 141.238 C 41.209 149.590,42.857 153.279,42.857 163.619 C 42.857 177.941,46.594 182.857,57.481 182.857 C 68.974 182.857,74.286 180.051,74.286 173.980 C 74.286 166.632,74.133 166.583,104.391 183.571 L 131.108 198.571 131.983 214.286 C 132.707 227.304,133.941 230.476,139.177 232.774 C 144.752 235.220,145.610 238.081,146.459 257.059 L 147.421 278.571 147.996 256.627 C 148.530 236.249,149.030 234.618,155.000 233.770 C 160.774 232.950,161.515 231.039,162.279 215.000 C 162.826 203.514,164.355 197.121,166.565 197.081 C 168.454 197.047,180.862 190.722,194.137 183.025 C 217.971 169.208,218.313 169.110,221.364 175.230 C 223.844 180.205,226.976 181.429,237.227 181.429 L 250.000 181.429 250.857 165.000 C 251.328 155.964,252.997 148.571,254.565 148.571 C 269.117 148.571,278.463 107.299,265.714 99.337 C 262.571 97.374,260.000 93.705,260.000 91.184 C 260.000 85.306,251.021 77.143,244.556 77.143 C 241.809 77.143,226.789 70.071,211.178 61.429 C 195.567 52.786,180.238 45.714,177.112 45.714 C 173.492 45.714,171.429 43.800,171.429 40.443 C 171.429 34.345,164.180 27.228,155.181 24.489 C 151.745 23.443,148.384 19.755,147.713 16.293 C 146.515 10.114,146.485 10.110,146.103 16.082 M165.141 49.753 L 164.286 61.429 147.143 61.429 L 130.000 61.429 130.000 50.714 C 130.000 40.457,134.478 35.446,136.575 43.357 C 137.239 45.864,136.554 45.695,134.547 42.857 C 131.884 39.091,131.511 39.122,131.472 43.113 C 131.448 45.611,134.643 49.119,138.571 50.909 C 142.500 52.699,145.753 55.798,145.801 57.796 C 145.851 59.896,147.116 59.319,148.800 56.429 C 150.402 53.679,153.445 51.429,155.563 51.429 C 158.132 51.429,159.260 48.172,158.953 41.639 C 158.586 33.850,159.259 32.485,162.245 34.963 C 164.528 36.858,165.662 42.648,165.141 49.753 M207.143 67.179 C 215.000 71.647,221.910 75.662,222.498 76.102 C 223.087 76.542,220.194 80.912,216.069 85.814 C 200.132 104.754,207.321 122.807,230.815 122.843 C 235.977 122.851,243.284 124.877,247.052 127.346 C 252.370 130.831,255.224 131.128,259.808 128.674 C 263.749 126.565,265.714 126.498,265.714 128.471 C 265.714 130.098,264.429 131.429,262.857 131.429 C 261.286 131.429,259.994 133.036,259.986 135.000 C 259.966 140.354,173.334 188.526,170.758 184.615 C 169.417 182.580,168.643 183.115,168.615 186.095 C 168.510 197.336,128.632 197.363,128.528 186.123 C 128.500 183.130,127.723 182.584,126.385 184.615 C 123.757 188.604,37.177 140.298,37.157 134.831 C 37.149 132.774,35.857 131.886,34.286 132.857 C 32.714 133.828,31.429 134.009,31.429 133.259 C 31.429 132.510,30.568 129.541,29.516 126.662 C 27.731 121.779,28.026 121.800,33.917 126.976 C 39.926 132.256,40.627 132.290,48.414 127.690 C 52.914 125.032,60.621 122.857,65.541 122.857 C 88.204 122.857,95.975 103.665,80.273 86.474 C 70.763 76.061,70.429 76.542,96.759 62.699 L 114.948 53.137 120.569 60.854 C 131.380 75.695,180.000 70.052,180.000 53.957 C 180.000 51.897,182.272 52.235,186.429 54.913 C 189.964 57.191,199.286 62.710,207.143 67.179 M46.732 86.378 C 40.736 96.081,46.439 105.714,58.180 105.714 C 64.698 105.714,72.041 96.938,70.489 91.003 C 69.729 88.094,70.272 85.714,71.696 85.714 C 73.120 85.714,74.286 92.651,74.286 101.128 L 74.286 116.543 62.763 117.641 C 48.312 119.020,39.452 111.163,40.868 98.226 C 41.794 89.769,44.768 82.857,47.480 82.857 C 48.266 82.857,47.929 84.442,46.732 86.378 M226.732 86.378 C 222.660 92.968,223.776 100.291,229.304 103.249 C 235.674 106.658,249.640 104.041,247.091 99.916 C 246.148 98.391,246.889 97.143,248.736 97.143 C 250.689 97.143,251.469 94.750,250.600 91.425 C 249.777 88.280,250.270 86.427,251.695 87.308 C 255.493 89.655,254.856 109.715,250.857 113.714 C 244.371 120.201,223.172 118.036,221.480 110.714 C 218.984 99.914,222.658 82.857,227.480 82.857 C 228.266 82.857,227.929 84.442,226.732 86.378 M142.293 88.657 C 123.876 91.835,117.226 102.658,127.857 112.150 C 137.838 121.061,167.473 119.822,171.806 110.312 C 177.981 96.760,162.245 85.214,142.293 88.657 M145.714 102.857 C 145.714 112.631,137.783 114.800,131.172 106.834 C 127.932 102.930,128.176 101.641,132.797 98.262 C 141.476 91.916,145.714 93.424,145.714 102.857 M166.808 100.010 C 171.657 104.746,166.053 111.429,157.233 111.429 C 149.447 111.429,148.571 110.531,148.571 102.547 C 148.571 93.580,158.770 92.161,166.808 100.010 M265.714 111.026 C 265.714 117.083,260.338 122.857,254.700 122.857 C 251.270 122.857,251.370 121.943,255.271 117.632 C 257.872 114.758,260.000 110.183,260.000 107.464 C 260.000 104.745,261.286 103.315,262.857 104.286 C 264.429 105.257,265.714 108.290,265.714 111.026 M43.671 123.851 C 42.836 125.203,38.938 123.094,35.010 119.166 C 31.081 115.237,28.738 110.613,29.803 108.890 C 31.025 106.912,34.220 108.641,38.465 113.576 C 42.164 117.876,44.507 122.500,43.671 123.851 M65.714 129.587 C 65.714 131.506,103.075 152.163,104.311 150.927 C 104.874 150.364,96.420 145.029,85.524 139.070 C 74.629 133.112,65.714 128.844,65.714 129.587 M129.597 135.000 C 99.401 169.147,121.224 193.848,168.954 179.548 C 194.294 171.956,176.947 128.571,148.571 128.571 C 138.379 128.571,133.957 130.070,129.597 135.000 M210.741 138.155 C 186.999 151.777,186.429 154.344,210.000 141.493 C 232.209 129.384,233.519 128.534,229.762 128.658 C 228.321 128.706,219.762 132.979,210.741 138.155 M214.286 147.143 C 200.929 155.722,190.922 162.768,192.048 162.800 C 194.519 162.869,240.000 134.198,240.000 132.571 C 240.000 130.671,239.412 131.004,214.286 147.143 M64.286 139.462 C 85.419 152.172,105.714 163.159,105.714 161.888 C 105.714 160.116,61.030 134.282,57.990 134.296 C 56.738 134.302,59.571 136.627,64.286 139.462 M137.517 138.120 C 135.767 140.229,135.150 142.769,136.146 143.765 C 137.142 144.761,136.167 147.759,133.979 150.426 C 130.413 154.773,130.668 155.105,136.433 153.619 C 139.970 152.707,142.145 153.127,141.264 154.552 C 140.383 155.977,141.989 157.052,144.831 156.942 C 154.966 156.548,159.146 152.955,158.761 144.968 C 158.551 140.629,159.709 137.522,161.333 138.063 C 162.957 138.605,164.286 146.012,164.286 154.524 L 164.286 170.000 150.095 170.896 C 129.950 172.168,120.213 153.971,133.300 139.511 C 138.721 133.520,142.320 132.334,137.517 138.120 M60.319 158.736 C 72.167 164.863,71.050 175.714,58.571 175.714 C 50.729 175.714,49.925 174.803,49.113 165.000 C 48.107 152.847,48.503 152.626,60.319 158.736 M245.714 165.895 C 245.714 178.600,228.554 182.918,226.257 170.791 C 225.528 166.940,239.806 154.374,245.000 154.296 C 245.393 154.291,245.714 159.510,245.714 165.895 M157.143 214.467 L 157.143 228.933 147.857 228.038 C 138.954 227.180,138.536 226.584,137.701 213.571 L 136.830 200.000 146.986 200.000 L 157.143 200.000 157.143 214.467 " stroke="none" fill="#EEEEEE" fill-rule="evenodd"/>
  </g></svg>