<svg viewBox="0 0 500 500" xmlns="http://www.w3.org/2000/svg"><g xmlns="http://www.w3.org/2000/svg" id="g-7" transform="matrix(0.042223, 0, 0, 0.042223, 244.211487, 119.551544)" style="">
    <path id="path-7" d="M151.020 66.618 C 109.044 89.702,106.498 100.480,106.304 255.883 C 106.151 378.710,103.923 405.287,92.099 425.302 C 79.535 446.571,79.307 451.797,89.906 475.541 C 98.863 495.605,102.338 547.984,104.214 691.228 L 106.692 880.415 142.555 901.432 C 245.806 961.941,261.224 935.215,261.224 695.725 C 261.224 544.396,263.484 506.256,273.210 493.397 C 288.935 472.606,289.092 421.129,273.469 408.163 C 263.373 399.784,261.224 370.838,261.224 243.166 C 261.224 92.579,260.721 87.911,242.857 73.009 C 222.426 55.964,176.237 52.750,151.020 66.618 M218.381 83.673 C 213.626 97.994,176.333 109.762,158.098 102.698 C 143.332 96.977,143.351 96.430,158.703 85.131 C 178.652 70.450,223.132 69.363,218.381 83.673 M243.116 193.008 L 240.816 288.056 210.204 307.412 L 179.592 326.768 179.592 236.047 L 179.592 145.326 204.945 121.643 C 243.440 85.682,245.615 89.748,243.116 193.008 M378.123 146.939 C 378.123 176.122,379.605 188.061,381.415 173.469 C 383.226 158.878,383.226 135.000,381.415 120.408 C 379.605 105.816,378.123 117.755,378.123 146.939 M147.475 139.063 C 161.747 146.700,163.265 156.983,163.265 245.973 L 163.265 344.433 204.402 341.604 L 245.538 338.776 243.177 395.918 L 240.816 453.061 192.065 455.564 C 122.332 459.143,122.449 459.438,122.449 280.072 C 122.449 197.869,124.527 130.612,127.067 130.612 C 129.607 130.612,138.791 134.415,147.475 139.063 M181.945 489.796 C 208.180 489.796,236.750 485.993,245.435 481.345 C 256.429 475.461,261.224 475.523,261.224 481.547 C 261.224 516.366,116.746 512.928,103.262 477.789 C 98.628 465.713,99.782 465.657,116.210 477.163 C 127.492 485.066,152.106 489.796,181.945 489.796 M244.898 696.455 C 244.898 880.652,240.896 906.122,211.958 906.122 C 199.712 906.122,195.918 900.539,195.918 882.518 C 195.918 863.567,191.492 857.808,173.469 853.310 C 123.693 840.887,122.449 836.423,122.449 670.163 L 122.449 518.367 183.673 518.367 L 244.898 518.367 244.898 696.455 M179.592 888.095 C 179.592 894.269,176.837 897.977,173.469 896.337 C 132.667 876.456,122.449 869.362,122.449 860.910 C 122.449 853.673,130.218 854.492,151.020 863.921 C 166.735 871.043,179.592 881.922,179.592 888.095 " stroke="none" fill="#EEEEEE" fill-rule="evenodd"/>
  </g></svg>